<svg xmlns="http://www.w3.org/2000/svg" version="1.1" xmlns:xlink="http://www.w3.org/1999/xlink" xmlns:svgjs="http://svgjs.dev/svgjs" width="2000" height="429" viewBox="0 0 2000 429"><g transform="matrix(1,0,0,1,-1.2121212121212466,0.13193000471443384)"><svg viewBox="0 0 396 85" data-background-color="#18212f" preserveAspectRatio="xMidYMid meet" height="429" width="2000" xmlns="http://www.w3.org/2000/svg" xmlns:xlink="http://www.w3.org/1999/xlink"><g id="tight-bounds" transform="matrix(1,0,0,1,0.2400000000000091,-0.026139977624069388)"><svg viewBox="0 0 395.52 85.05197835743269" height="85.05197835743269" width="395.52"><g><svg viewBox="0 0 539.5110906391234 116.0155886039483" height="85.05197835743269" width="395.52"><g transform="matrix(1,0,0,1,143.9910906391234,28.382269010145357)"><svg viewBox="0 0 395.52 59.25105058365759" height="59.25105058365759" width="395.52"><g id="textblocktransform"><svg viewBox="0 0 395.52 59.25105058365759" height="59.25105058365759" width="395.52" id="textblock"><g><svg viewBox="0 0 395.52 59.25105058365759" height="59.25105058365759" width="395.52"><g transform="matrix(1,0,0,1,0,0)"><svg width="395.52" viewBox="3.85 -37.75 256.97999999999996 38.5" height="59.25105058365759" data-palette-color="#ffffff"><path d="M16.9-27.15Q18.35-27.15 19.55-26.8L19.55-26.8 18.45-20.6Q17.25-20.9 16.1-20.9L16.1-20.9Q13.75-20.9 12.4-19.23 11.05-17.55 10.25-14.1L10.25-14.1 10.25 0 3.85 0 3.85-26.45 9.4-26.45 10-21.25Q10.95-24.1 12.75-25.63 14.55-27.15 16.9-27.15L16.9-27.15ZM45.25-13.85Q45.25-13.35 45.1-11.25L45.1-11.25 28.5-11.25Q28.8-7.4 30.5-5.75 32.2-4.1 35-4.1L35-4.1Q36.75-4.1 38.3-4.67 39.85-5.25 41.6-6.45L41.6-6.45 44.25-2.8Q39.85 0.75 34.45 0.75L34.45 0.75Q28.4 0.75 25.12-2.95 21.85-6.65 21.85-13.05L21.85-13.05Q21.85-17.1 23.25-20.33 24.65-23.55 27.3-25.38 29.95-27.2 33.6-27.2L33.6-27.2Q39.15-27.2 42.2-23.68 45.25-20.15 45.25-13.85L45.25-13.85ZM38.9-15.4L38.9-15.7Q38.9-22.65 33.75-22.65L33.75-22.65Q31.4-22.65 30.07-20.93 28.75-19.2 28.5-15.4L28.5-15.4 38.9-15.4ZM70.55-7Q70.55-5.45 71.02-4.73 71.5-4 72.55-3.6L72.55-3.6 71.2 0.65Q68.95 0.45 67.52-0.45 66.1-1.35 65.35-3.2L65.35-3.2Q64-1.2 61.97-0.23 59.95 0.75 57.45 0.75L57.45 0.75Q53.5 0.75 51.2-1.5 48.9-3.75 48.9-7.4L48.9-7.4Q48.9-11.7 52.02-13.98 55.15-16.25 60.95-16.25L60.95-16.25 64.25-16.25 64.25-17.75Q64.25-20.3 63.07-21.33 61.9-22.35 59.3-22.35L59.3-22.35Q56.4-22.35 52.3-20.95L52.3-20.95 50.8-25.3Q55.75-27.2 60.4-27.2L60.4-27.2Q70.55-27.2 70.55-18.1L70.55-18.1 70.55-7ZM59.15-3.9Q62.4-3.9 64.25-7.15L64.25-7.15 64.25-12.5 61.6-12.5Q55.4-12.5 55.4-7.9L55.4-7.9Q55.4-6 56.35-4.95 57.3-3.9 59.15-3.9L59.15-3.9ZM84.54 0.75Q81.49 0.75 79.77-1.03 78.04-2.8 78.04-6.05L78.04-6.05 78.04-37.05 84.44-37.75 84.44-6.25Q84.44-4.4 85.94-4.4L85.94-4.4Q86.69-4.4 87.44-4.65L87.44-4.65 88.79-0.15Q86.79 0.75 84.54 0.75L84.54 0.75ZM105.94-5.35L108.19-1.25Q106.79-0.25 105.07 0.25 103.34 0.75 101.54 0.75L101.54 0.75Q97.64 0.7 95.62-1.48 93.59-3.65 93.59-7.9L93.59-7.9 93.59-21.85 89.44-21.85 89.44-26.45 93.59-26.45 93.59-32.3 99.99-33.05 99.99-26.45 106.14-26.45 105.49-21.85 99.99-21.85 99.99-8.05Q99.99-6.1 100.67-5.25 101.34-4.4 102.79-4.4L102.79-4.4Q104.24-4.4 105.94-5.35L105.94-5.35ZM122.59-27.2Q128.44-27.2 131.71-23.48 134.99-19.75 134.99-13.25L134.99-13.25Q134.99-9.1 133.49-5.93 131.99-2.75 129.19-1 126.39 0.75 122.54 0.75L122.54 0.75Q116.69 0.75 113.39-2.98 110.09-6.7 110.09-13.25L110.09-13.25Q110.09-17.4 111.59-20.55 113.09-23.7 115.91-25.45 118.74-27.2 122.59-27.2L122.59-27.2ZM122.59-22.35Q116.84-22.35 116.84-13.25L116.84-13.25Q116.84-8.55 118.26-6.33 119.69-4.1 122.54-4.1L122.54-4.1Q125.39-4.1 126.81-6.35 128.24-8.6 128.24-13.25L128.24-13.25Q128.24-17.9 126.81-20.13 125.39-22.35 122.59-22.35L122.59-22.35ZM154.04-27.15Q155.49-27.15 156.69-26.8L156.69-26.8 155.59-20.6Q154.39-20.9 153.24-20.9L153.24-20.9Q150.89-20.9 149.54-19.23 148.19-17.55 147.39-14.1L147.39-14.1 147.39 0 140.99 0 140.99-26.45 146.54-26.45 147.14-21.25Q148.09-24.1 149.89-25.63 151.69-27.15 154.04-27.15L154.04-27.15ZM162.78-7.35Q164.48-7.35 165.68-6.18 166.88-5 166.88-3.3L166.88-3.3Q166.88-1.65 165.68-0.45 164.48 0.75 162.78 0.75L162.78 0.75Q161.13 0.75 159.96-0.45 158.78-1.65 158.78-3.3L158.78-3.3Q158.78-5 159.93-6.18 161.08-7.35 162.78-7.35L162.78-7.35ZM183.33-27.2Q185.93-27.2 188.01-26.45 190.08-25.7 191.93-24.1L191.93-24.1 189.08-20.25Q187.73-21.25 186.48-21.7 185.23-22.15 183.73-22.15L183.73-22.15Q177.78-22.15 177.78-13.1L177.78-13.1Q177.78-8.5 179.33-6.48 180.88-4.45 183.73-4.45L183.73-4.45Q185.13-4.45 186.31-4.9 187.48-5.35 189.08-6.35L189.08-6.35 191.93-2.3Q188.18 0.75 183.38 0.75L183.38 0.75Q179.58 0.75 176.78-0.93 173.98-2.6 172.48-5.7 170.98-8.8 170.98-13L170.98-13Q170.98-17.2 172.48-20.43 173.98-23.65 176.78-25.43 179.58-27.2 183.33-27.2L183.33-27.2ZM207.38-27.2Q213.23-27.2 216.5-23.48 219.78-19.75 219.78-13.25L219.78-13.25Q219.78-9.1 218.28-5.93 216.78-2.75 213.98-1 211.18 0.75 207.33 0.75L207.33 0.75Q201.48 0.75 198.18-2.98 194.88-6.7 194.88-13.25L194.88-13.25Q194.88-17.4 196.38-20.55 197.88-23.7 200.7-25.45 203.53-27.2 207.38-27.2L207.38-27.2ZM207.38-22.35Q201.63-22.35 201.63-13.25L201.63-13.25Q201.63-8.55 203.05-6.33 204.48-4.1 207.33-4.1L207.33-4.1Q210.18-4.1 211.6-6.35 213.03-8.6 213.03-13.25L213.03-13.25Q213.03-17.9 211.6-20.13 210.18-22.35 207.38-22.35L207.38-22.35ZM253.83-27.2Q257.03-27.2 258.93-25.03 260.83-22.85 260.83-19.15L260.83-19.15 260.83 0 254.43 0 254.43-18.15Q254.43-22.4 251.53-22.4L251.53-22.4Q249.98-22.4 248.85-21.43 247.73-20.45 246.53-18.4L246.53-18.4 246.53 0 240.13 0 240.13-18.15Q240.13-22.4 237.23-22.4L237.23-22.4Q235.63-22.4 234.5-21.43 233.38-20.45 232.18-18.4L232.18-18.4 232.18 0 225.78 0 225.78-26.45 231.33-26.45 231.83-23Q234.83-27.2 239.48-27.2L239.48-27.2Q241.78-27.2 243.45-26.03 245.13-24.85 245.88-22.75L245.88-22.75Q247.48-24.9 249.4-26.05 251.33-27.2 253.83-27.2L253.83-27.2Z" opacity="1" transform="matrix(1,0,0,1,0,0)" fill="#ffffff" class="wordmark-text-0" data-fill-palette-color="primary" id="text-0"></path></svg></g></svg></g></svg></g></svg></g><g><svg viewBox="0 0 116.0155886039483 116.0155886039483" height="116.0155886039483" width="116.0155886039483"><g><svg></svg></g><g id="icon-0"><svg viewBox="0 0 116.0155886039483 116.0155886039483" height="116.0155886039483" width="116.0155886039483"><g><path d="M0 58.008c0-32.037 25.971-58.008 58.008-58.008 32.037 0 58.008 25.971 58.008 58.008 0 32.037-25.971 58.008-58.008 58.008-32.037 0-58.008-25.971-58.008-58.008zM58.008 110.672c29.086 0 52.664-23.579 52.664-52.664 0-29.086-23.579-52.664-52.664-52.665-29.086 0-52.664 23.579-52.665 52.665 0 29.086 23.579 52.664 52.665 52.664z" data-fill-palette-color="accent" fill="#ffffff" stroke="transparent"></path><ellipse rx="57.427716358954406" ry="57.427716358954406" cx="58.00779430197415" cy="58.00779430197415" fill="#ffffff" stroke="transparent" stroke-width="0" fill-opacity="1" data-fill-palette-color="accent"></ellipse></g><g transform="matrix(1,0,0,1,25.210665915586475,42.97181555712147)"><svg viewBox="0 0 65.59425677277535 30.07195748970537" height="30.07195748970537" width="65.59425677277535"><g><svg xmlns="http://www.w3.org/2000/svg" xmlns:xlink="http://www.w3.org/1999/xlink" version="1.1" viewBox="0.0016468652544599366 25.996000000000002 95.99670626949107 44.01008582333731" x="0" y="0" height="30.07195748970537" width="65.59425677277535" class="icon-cg-0" data-fill-palette-color="quaternary" id="cg-0"><path d="M2 70c-0.56 0-1.112-0.236-1.508-0.688-0.724-0.832-0.636-2.092 0.196-2.824l46-40c0.752-0.656 1.872-0.656 2.624 0l10.688 9.292v-7.78c0-1.104 0.9-2 2-2h12c1.1 0 2 0.9 2 2v21.7l19.312 16.792c0.832 0.728 0.92 1.992 0.196 2.828s-1.992 0.916-2.824 0.196l-20-17.392c-0.432-0.384-0.688-0.928-0.688-1.508v-20.616h-8v10.168c0 0.784-0.456 1.492-1.168 1.82-0.708 0.324-1.548 0.204-2.144-0.312l-12.688-11.028-44.688 38.86c-0.376 0.332-0.84 0.492-1.308 0.492z" fill="#046380" data-fill-palette-color="quaternary"></path></svg></g></svg></g></svg></g></svg></g></svg></g><defs></defs></svg><rect width="395.52" height="85.05197835743269" fill="none" stroke="none" visibility="hidden"></rect></g></svg></g></svg>